M48
; DRILL file {KiCad (6.0.8)} date Tue Nov 21 01:59:32 2023
; FORMAT={-:-/ absolute / metric / decimal}
; #@! TF.CreationDate,2023-11-21T01:59:32+01:00
; #@! TF.GenerationSoftware,Kicad,Pcbnew,(6.0.8)
; #@! TF.FileFunction,Plated,1,4,PTH
FMAT,2
METRIC
; #@! TA.AperFunction,Plated,PTH,ViaDrill
T1C0.400
; #@! TA.AperFunction,Plated,PTH,ComponentDrill
T2C1.000
; #@! TA.AperFunction,Plated,PTH,ComponentDrill
T3C1.400
; #@! TA.AperFunction,Plated,PTH,ComponentDrill
T4C3.200
%
G90
G05
T1
X61.37Y-59.34
X61.39Y-63.62
X61.39Y-68.62
X61.39Y-73.62
X61.39Y-78.62
X61.39Y-83.62
X61.39Y-88.62
X61.39Y-93.62
X61.39Y-98.62
X61.39Y-103.62
X61.39Y-108.62
X61.41Y-49.75
X61.41Y-54.75
X61.48Y-44.41
X63.07Y-44.15
X63.64Y-40.84
X64.95Y-111.53
X69.52Y-40.82
X69.59Y-84.19
X69.92Y-53.02
X69.95Y-111.53
X71.51Y-53.02
X71.99Y-74.05
X73.07Y-53.02
X73.21Y-75.55
X74.1Y-90.64
X74.15Y-83.27
X74.15Y-88.2
X74.16Y-85.71
X74.2Y-80.85
X74.23Y-40.74
X74.66Y-53.02
X74.95Y-111.53
X76.33Y-53.03
X76.46Y-74.41
X76.86Y-80.83
X77.06Y-71.1
X77.1Y-88.1
X77.92Y-53.03
X77.94Y-108.68
X78.74Y-72.46
X78.93Y-69.72
X79.15Y-92.3
X79.24Y-66.84
X79.34Y-74.83
X79.37Y-99.0
X79.48Y-53.03
X79.49Y-100.1
X79.52Y-78.33
X79.53Y-85.19
X79.53Y-87.18
X79.74Y-101.14
X79.76Y-104.51
X79.76Y-108.71
X79.95Y-111.53
X81.07Y-53.03
X81.8Y-106.0
X81.84Y-83.37
X82.62Y-53.02
X84.0Y-101.0
X84.06Y-81.93
X84.12Y-80.72
X84.21Y-53.02
X84.25Y-78.95
X84.29Y-102.44
X84.4Y-89.4
X84.48Y-90.7
X84.48Y-92.56
X84.51Y-85.9
X84.95Y-111.53
X85.4Y-75.03
X85.56Y-85.63
X85.58Y-104.73
X85.61Y-101.1
X85.77Y-53.02
X86.18Y-72.79
X86.38Y-88.57
X86.89Y-54.23
X86.89Y-57.16
X86.9Y-55.67
X87.22Y-85.99
X87.43Y-88.63
X87.82Y-58.53
X87.88Y-48.35
X87.96Y-30.35
X87.98Y-84.8
X88.01Y-81.54
X88.16Y-97.94
X88.22Y-108.69
X88.28Y-96.33
X88.29Y-103.64
X88.32Y-24.82
X88.44Y-88.57
X88.46Y-79.28
X88.66Y-76.65
X89.41Y-58.53
X89.95Y-111.53
X90.28Y-23.55
X90.28Y-50.45
X90.97Y-58.53
X91.24Y-45.26
X92.12Y-83.85
X92.45Y-77.87
X92.56Y-58.53
X92.83Y-97.43
X92.95Y-101.96
X93.07Y-82.12
X93.09Y-83.21
X93.16Y-93.72
X93.5Y-99.3
X93.5Y-100.8
X93.79Y-79.92
X93.93Y-39.81
X94.09Y-25.26
X94.09Y-26.71
X94.09Y-28.21
X94.09Y-29.71
X94.09Y-31.21
X94.09Y-48.74
X94.09Y-50.24
X94.09Y-51.74
X94.14Y-54.63
X94.14Y-56.14
X94.14Y-57.73
X94.15Y-47.23
X94.15Y-53.25
X94.43Y-85.2
X94.62Y-36.45
X94.7Y-34.97
X94.9Y-45.6
X94.91Y-90.69
X94.95Y-111.53
X95.28Y-23.55
X95.41Y-32.52
X95.69Y-93.46
X96.44Y-45.56
X96.98Y-32.55
X97.0Y-82.94
X97.05Y-95.48
X97.2Y-80.96
X97.34Y-52.21
X97.73Y-76.55
X97.74Y-77.77
X97.74Y-84.92
X97.825Y-79.025
X98.03Y-45.56
X98.04Y-83.37
X98.3Y-93.46
X98.63Y-32.5
X98.72Y-36.9
X99.53Y-45.56
X99.73Y-98.6
X99.95Y-111.53
X100.2Y-39.32
X100.2Y-40.86
X100.2Y-42.46
X100.2Y-44.0
X100.21Y-33.17
X100.21Y-34.67
X100.21Y-36.17
X100.23Y-37.71
X100.28Y-23.55
X100.83Y-53.14
X102.56Y-53.14
X103.55Y-65.92
X103.55Y-68.85
X103.56Y-67.36
X103.61Y-104.36
X103.61Y-107.29
X103.62Y-85.05
X103.62Y-87.98
X103.62Y-105.8
X103.63Y-86.49
X104.18Y-53.14
X104.95Y-111.53
X105.28Y-23.55
X105.91Y-53.14
X107.64Y-53.19
X109.37Y-53.19
X109.6Y-63.98
X109.95Y-111.53
X110.28Y-23.55
X111.01Y-53.19
X111.78Y-94.41
X112.45Y-96.95
X112.45Y-98.4
X112.45Y-99.75
X112.45Y-101.15
X112.75Y-103.54
X112.93Y-48.25
X113.33Y-64.45
X113.66Y-92.57
X113.88Y-77.73
X114.22Y-72.5
X114.32Y-82.75
X114.38Y-94.41
X114.39Y-103.51
X114.95Y-111.53
X115.28Y-23.55
X115.43Y-90.82
X116.21Y-48.37
X116.98Y-94.41
X117.14Y-46.94
X117.17Y-81.4
X117.25Y-89.03
X117.85Y-52.2
X118.03Y-45.45
X118.78Y-50.71
X118.95Y-111.55
X119.06Y-87.18
X119.43Y-103.62
X119.49Y-67.65
X119.58Y-94.41
X119.69Y-49.25
X120.11Y-23.56
X120.5Y-52.33
X120.53Y-47.74
X120.74Y-66.43
X121.07Y-103.59
X121.28Y-50.78
X121.47Y-46.2
X121.89Y-65.32
X122.06Y-49.29
X122.18Y-94.41
X122.88Y-47.74
X123.01Y-64.22
X123.19Y-59.2
X123.68Y-46.21
X123.95Y-111.55
X124.15Y-63.22
X124.25Y-96.95
X124.25Y-98.4
X124.25Y-99.7
X124.25Y-101.2
X124.63Y-94.39
X124.64Y-58.46
X125.0Y-44.8
X125.11Y-23.56
X125.23Y-80.11
X125.3Y-81.83
X125.31Y-83.26
X125.31Y-84.58
X125.31Y-86.17
X125.33Y-62.17
X125.34Y-87.94
X126.0Y-57.78
X126.11Y-55.11
X126.17Y-53.72
X126.18Y-77.76
X126.2Y-76.2
X126.43Y-63.11
X126.44Y-64.89
X127.23Y-94.39
X127.6Y-44.8
X127.67Y-103.63
X128.95Y-111.55
X129.31Y-103.6
X129.47Y-56.02
X129.47Y-58.1
X129.48Y-57.05
X129.48Y-59.32
X129.49Y-55.02
X129.49Y-60.5
X129.49Y-61.71
X129.49Y-62.9
X129.5Y-64.11
X129.5Y-78.38
X129.5Y-80.46
X129.51Y-79.41
X129.51Y-81.68
X129.52Y-54.08
X129.52Y-76.48
X129.52Y-77.38
X129.52Y-82.86
X129.52Y-84.07
X129.52Y-85.26
X129.53Y-86.47
X129.83Y-94.39
X130.11Y-23.56
X130.2Y-44.8
X130.53Y-56.03
X130.53Y-58.11
X130.54Y-57.06
X130.54Y-59.33
X130.55Y-55.03
X130.55Y-60.51
X130.55Y-61.72
X130.55Y-62.91
X130.55Y-78.38
X130.55Y-80.46
X130.56Y-64.12
X130.56Y-79.41
X130.56Y-81.68
X130.57Y-77.38
X130.57Y-82.86
X130.57Y-84.07
X130.57Y-85.26
X130.58Y-54.09
X130.58Y-76.49
X130.58Y-86.47
X131.58Y-56.03
X131.58Y-58.11
X131.58Y-78.39
X131.58Y-80.47
X131.59Y-57.06
X131.59Y-59.33
X131.59Y-79.42
X131.59Y-81.69
X131.6Y-33.25
X131.6Y-35.2
X131.6Y-55.03
X131.6Y-60.51
X131.6Y-61.72
X131.6Y-62.91
X131.6Y-76.48
X131.6Y-77.39
X131.6Y-82.87
X131.6Y-84.08
X131.6Y-85.27
X131.61Y-64.12
X131.61Y-86.48
X131.63Y-54.09
X131.65Y-37.0
X131.65Y-38.8
X131.96Y-30.93
X132.43Y-94.39
X132.57Y-78.4
X132.57Y-80.48
X132.58Y-79.43
X132.58Y-81.7
X132.59Y-77.4
X132.59Y-82.88
X132.59Y-84.09
X132.59Y-85.28
X132.6Y-86.49
X132.61Y-56.04
X132.61Y-58.12
X132.61Y-76.49
X132.62Y-57.07
X132.62Y-59.34
X132.63Y-55.04
X132.63Y-60.52
X132.63Y-61.73
X132.63Y-62.92
X132.64Y-64.13
X132.66Y-54.1
X132.8Y-44.8
X133.6Y-30.9
X133.61Y-56.01
X133.61Y-58.09
X133.62Y-57.04
X133.62Y-59.31
X133.62Y-78.4
X133.62Y-80.48
X133.63Y-55.01
X133.63Y-60.49
X133.63Y-61.7
X133.63Y-62.89
X133.63Y-79.43
X133.63Y-81.7
X133.64Y-64.1
X133.64Y-76.49
X133.64Y-77.4
X133.64Y-82.88
X133.64Y-84.09
X133.64Y-85.28
X133.65Y-86.49
X133.66Y-54.07
X133.95Y-111.55
X134.14Y-103.58
X135.03Y-94.39
X135.11Y-23.56
X135.4Y-44.8
X135.78Y-103.55
X136.63Y-52.95
X137.07Y-77.06
X137.34Y-94.37
X137.38Y-87.0
X137.43Y-54.35
X137.45Y-64.63
X137.46Y-62.97
X137.47Y-56.27
X137.59Y-61.06
X137.68Y-58.7
X137.8Y-43.98
X137.92Y-83.62
X138.14Y-66.51
X138.38Y-30.98
X138.48Y-77.02
X138.6Y-61.41
X138.62Y-60.31
X138.66Y-78.91
X138.74Y-55.94
X138.81Y-57.03
X138.95Y-111.55
X139.05Y-96.8
X139.05Y-98.35
X139.05Y-99.9
X139.05Y-101.3
X139.35Y-67.76
X139.39Y-82.77
X139.49Y-58.67
X139.62Y-81.62
X139.72Y-84.45
X139.78Y-86.4
X139.86Y-79.24
X139.94Y-94.37
X139.97Y-44.0
X140.02Y-30.95
X140.11Y-23.56
X140.14Y-75.78
X140.3Y-58.08
X140.6Y-69.09
X140.66Y-81.18
X141.88Y-70.41
X142.0Y-75.77
X142.17Y-44.01
X142.2Y-33.3
X142.2Y-35.05
X142.2Y-37.0
X142.2Y-38.9
X142.3Y-103.65
X142.54Y-94.37
X143.31Y-71.87
X143.51Y-88.27
X143.82Y-75.77
X143.94Y-103.62
X143.95Y-111.55
X144.05Y-49.25
X144.28Y-30.96
X144.4Y-44.02
X144.87Y-90.36
X145.11Y-23.56
X145.14Y-94.37
X145.22Y-74.4
X145.38Y-47.96
X145.68Y-71.99
X145.92Y-30.93
X146.3Y-92.35
X146.59Y-44.01
X146.62Y-46.72
X147.66Y-94.37
X147.8Y-71.94
X147.89Y-45.46
X148.48Y-97.67
X148.76Y-103.65
X148.95Y-111.55
X149.34Y-98.93
X149.8Y-71.93
X150.11Y-23.56
X150.3Y-100.23
X150.4Y-103.62
X150.91Y-31.07
X151.18Y-101.5
X151.21Y-73.24
X152.55Y-31.04
X153.95Y-111.55
X155.11Y-23.56
X158.95Y-111.55
X160.11Y-23.56
X162.39Y-26.39
X162.48Y-107.88
X163.7Y-26.4
X163.79Y-107.89
X163.95Y-111.55
X165.11Y-23.56
X168.95Y-111.55
X170.11Y-23.56
X172.35Y-27.98
X172.53Y-65.95
X172.54Y-40.9
X172.58Y-78.29
X172.78Y-109.39
X173.69Y-27.98
X173.87Y-65.95
X173.88Y-40.9
X173.92Y-78.29
X173.95Y-111.55
X174.12Y-109.39
X174.98Y-27.98
X175.11Y-23.56
X175.16Y-65.95
X175.17Y-40.9
X175.21Y-78.29
X175.41Y-109.39
X176.27Y-27.99
X176.45Y-65.96
X176.46Y-40.91
X176.5Y-78.3
X176.7Y-109.4
X177.36Y-96.39
X177.37Y-94.74
X177.41Y-91.64
X177.41Y-93.14
X178.95Y-111.55
X180.11Y-23.56
X183.95Y-111.55
X185.11Y-23.56
X188.95Y-111.55
X190.11Y-23.56
X193.79Y-102.43
X193.79Y-107.43
X193.8Y-27.4
X193.8Y-32.4
X193.8Y-37.4
X193.8Y-42.4
X193.8Y-47.4
X193.8Y-52.4
X193.8Y-57.4
X193.8Y-62.4
X193.8Y-67.4
X193.8Y-72.4
X193.8Y-77.4
X193.8Y-82.4
X193.8Y-87.35
X193.8Y-92.4
X193.8Y-97.4
T2
X65.3Y-57.7
X65.3Y-60.2
X65.3Y-62.7
X65.31Y-42.8
X65.31Y-45.3
X65.31Y-47.8
X65.31Y-87.4
X65.31Y-89.9
X65.31Y-92.4
X65.31Y-102.23
X65.31Y-104.73
X65.31Y-107.23
X65.32Y-72.5
X65.32Y-75.0
X65.32Y-77.5
X67.8Y-57.7
X67.8Y-60.2
X67.8Y-62.7
X67.81Y-42.8
X67.81Y-45.3
X67.81Y-47.8
X67.82Y-72.5
X67.82Y-75.0
X67.82Y-77.5
X89.43Y-29.36
X89.43Y-31.36
X89.43Y-33.36
X89.43Y-35.36
X89.43Y-37.36
X89.43Y-39.36
X91.43Y-29.36
X91.43Y-31.36
X91.43Y-33.36
X91.43Y-35.36
X91.43Y-37.36
X91.43Y-39.36
T3
X116.65Y-32.7
X124.9Y-32.7
X186.0Y-41.0
X186.0Y-49.25
X186.0Y-57.5
X186.0Y-65.75
X186.0Y-87.85
X186.0Y-96.1
T4
X71.9Y-106.3
X98.42Y-28.2
X131.47Y-70.31
X188.3Y-106.3
X189.1Y-27.9
T0
M30
