G04 #@! TF.GenerationSoftware,KiCad,Pcbnew,(6.0.8)*
G04 #@! TF.CreationDate,2023-11-21T01:59:14+01:00*
G04 #@! TF.ProjectId,Modu_ wzmacniacza,4d6f6475-4220-4777-9a6d-61636e696163,rev?*
G04 #@! TF.SameCoordinates,Original*
G04 #@! TF.FileFunction,Soldermask,Bot*
G04 #@! TF.FilePolarity,Negative*
%FSLAX46Y46*%
G04 Gerber Fmt 4.6, Leading zero omitted, Abs format (unit mm)*
G04 Created by KiCad (PCBNEW (6.0.8)) date 2023-11-21 01:59:14*
%MOMM*%
%LPD*%
G01*
G04 APERTURE LIST*
G04 Aperture macros list*
%AMRoundRect*
0 Rectangle with rounded corners*
0 $1 Rounding radius*
0 $2 $3 $4 $5 $6 $7 $8 $9 X,Y pos of 4 corners*
0 Add a 4 corners polygon primitive as box body*
4,1,4,$2,$3,$4,$5,$6,$7,$8,$9,$2,$3,0*
0 Add four circle primitives for the rounded corners*
1,1,$1+$1,$2,$3*
1,1,$1+$1,$4,$5*
1,1,$1+$1,$6,$7*
1,1,$1+$1,$8,$9*
0 Add four rect primitives between the rounded corners*
20,1,$1+$1,$2,$3,$4,$5,0*
20,1,$1+$1,$4,$5,$6,$7,0*
20,1,$1+$1,$6,$7,$8,$9,0*
20,1,$1+$1,$8,$9,$2,$3,0*%
G04 Aperture macros list end*
%ADD10O,1.950000X2.400000*%
%ADD11C,5.600000*%
%ADD12C,1.700000*%
%ADD13C,1.600000*%
%ADD14O,2.400000X1.950000*%
%ADD15RoundRect,0.250000X0.262500X0.450000X-0.262500X0.450000X-0.262500X-0.450000X0.262500X-0.450000X0*%
%ADD16RoundRect,0.250000X0.250000X0.475000X-0.250000X0.475000X-0.250000X-0.475000X0.250000X-0.475000X0*%
%ADD17RoundRect,0.250000X-0.650000X0.325000X-0.650000X-0.325000X0.650000X-0.325000X0.650000X0.325000X0*%
%ADD18RoundRect,0.250000X-0.450000X0.262500X-0.450000X-0.262500X0.450000X-0.262500X0.450000X0.262500X0*%
%ADD19RoundRect,0.250000X-0.475000X0.250000X-0.475000X-0.250000X0.475000X-0.250000X0.475000X0.250000X0*%
%ADD20RoundRect,0.250000X-0.262500X-0.450000X0.262500X-0.450000X0.262500X0.450000X-0.262500X0.450000X0*%
%ADD21RoundRect,0.150000X0.587500X0.150000X-0.587500X0.150000X-0.587500X-0.150000X0.587500X-0.150000X0*%
%ADD22RoundRect,0.250000X0.475000X-0.250000X0.475000X0.250000X-0.475000X0.250000X-0.475000X-0.250000X0*%
%ADD23RoundRect,0.250000X-1.100000X0.325000X-1.100000X-0.325000X1.100000X-0.325000X1.100000X0.325000X0*%
%ADD24RoundRect,0.250000X0.450000X-0.262500X0.450000X0.262500X-0.450000X0.262500X-0.450000X-0.262500X0*%
G04 APERTURE END LIST*
D10*
X186000000Y-41000000D03*
X186000000Y-49250000D03*
X186000000Y-65750000D03*
X186000000Y-57500000D03*
D11*
X188300000Y-106300000D03*
D12*
X91430000Y-39360000D03*
X89430000Y-39360000D03*
X91430000Y-37360000D03*
X89430000Y-37360000D03*
X91430000Y-35360000D03*
X89430000Y-35360000D03*
X91430000Y-33360000D03*
X89430000Y-33360000D03*
X91430000Y-31360000D03*
X89430000Y-31360000D03*
X91430000Y-29360000D03*
X89430000Y-29360000D03*
D13*
X65310000Y-87400000D03*
X65310000Y-89900000D03*
X65310000Y-92400000D03*
X65310000Y-102230000D03*
X65310000Y-104730000D03*
X65310000Y-107230000D03*
X67810000Y-47800000D03*
X67810000Y-45300000D03*
X67810000Y-42800000D03*
X65310000Y-47800000D03*
X65310000Y-45300000D03*
X65310000Y-42800000D03*
X65320000Y-72500000D03*
X65320000Y-75000000D03*
X65320000Y-77500000D03*
X67820000Y-72500000D03*
X67820000Y-75000000D03*
X67820000Y-77500000D03*
D11*
X71900000Y-106300000D03*
X98420000Y-28200000D03*
D14*
X116650000Y-32700000D03*
X124900000Y-32700000D03*
D11*
X189100000Y-27900000D03*
X131470000Y-70310000D03*
D13*
X65300000Y-57700000D03*
X65300000Y-60200000D03*
X65300000Y-62700000D03*
X67800000Y-57700000D03*
X67800000Y-60200000D03*
X67800000Y-62700000D03*
D10*
X186000000Y-87850000D03*
X186000000Y-96100000D03*
D15*
X149812500Y-52650000D03*
X147987500Y-52650000D03*
X149725000Y-83600000D03*
X147900000Y-83600000D03*
D16*
X153462500Y-83600000D03*
X151562500Y-83600000D03*
D15*
X149812500Y-68750000D03*
X147987500Y-68750000D03*
D17*
X113887500Y-76225000D03*
X113887500Y-79175000D03*
D18*
X112887500Y-53412500D03*
X112887500Y-55237500D03*
D16*
X153550000Y-52650000D03*
X151650000Y-52650000D03*
D19*
X155600000Y-62450000D03*
X155600000Y-64350000D03*
D16*
X153462500Y-85800000D03*
X151562500Y-85800000D03*
D15*
X113112500Y-83900000D03*
X111287500Y-83900000D03*
D16*
X153562500Y-78700000D03*
X151662500Y-78700000D03*
D15*
X149825000Y-78700000D03*
X148000000Y-78700000D03*
D16*
X157162500Y-83600000D03*
X155262500Y-83600000D03*
X157262500Y-76500000D03*
X155362500Y-76500000D03*
X153550000Y-68750000D03*
X151650000Y-68750000D03*
D20*
X112475000Y-74100000D03*
X114300000Y-74100000D03*
D15*
X149812500Y-58000000D03*
X147987500Y-58000000D03*
D18*
X111487500Y-76187500D03*
X111487500Y-78012500D03*
D15*
X115212500Y-57470000D03*
X113387500Y-57470000D03*
D21*
X115025000Y-63875000D03*
X113150000Y-62925000D03*
X115025000Y-61975000D03*
D15*
X149725000Y-85800000D03*
X147900000Y-85800000D03*
D17*
X111287500Y-57150000D03*
X111287500Y-60100000D03*
D22*
X155600000Y-69700000D03*
X155600000Y-67800000D03*
D20*
X113375000Y-59740000D03*
X115200000Y-59740000D03*
D18*
X114987500Y-49812500D03*
X114987500Y-51637500D03*
D16*
X153550000Y-63350000D03*
X151650000Y-63350000D03*
X157262500Y-78700000D03*
X155362500Y-78700000D03*
X153562500Y-76500000D03*
X151662500Y-76500000D03*
X157162500Y-85800000D03*
X155262500Y-85800000D03*
D15*
X149812500Y-63350000D03*
X147987500Y-63350000D03*
D19*
X155600000Y-51700000D03*
X155600000Y-53600000D03*
D18*
X110987500Y-62012500D03*
X110987500Y-63837500D03*
D22*
X155600000Y-59050000D03*
X155600000Y-57150000D03*
D16*
X115340000Y-81410000D03*
X113440000Y-81410000D03*
D23*
X114487500Y-65950000D03*
X114487500Y-68900000D03*
D16*
X153550000Y-58000000D03*
X151650000Y-58000000D03*
D24*
X114987500Y-55225000D03*
X114987500Y-53400000D03*
D15*
X149825000Y-76500000D03*
X148000000Y-76500000D03*
D18*
X111487500Y-79787500D03*
X111487500Y-81612500D03*
D20*
X110075000Y-66125000D03*
X111900000Y-66125000D03*
M02*
