G04 #@! TF.GenerationSoftware,KiCad,Pcbnew,(6.0.8)*
G04 #@! TF.CreationDate,2023-11-21T01:59:14+01:00*
G04 #@! TF.ProjectId,Modu_ wzmacniacza,4d6f6475-4220-4777-9a6d-61636e696163,rev?*
G04 #@! TF.SameCoordinates,Original*
G04 #@! TF.FileFunction,Soldermask,Top*
G04 #@! TF.FilePolarity,Negative*
%FSLAX46Y46*%
G04 Gerber Fmt 4.6, Leading zero omitted, Abs format (unit mm)*
G04 Created by KiCad (PCBNEW (6.0.8)) date 2023-11-21 01:59:14*
%MOMM*%
%LPD*%
G01*
G04 APERTURE LIST*
G04 Aperture macros list*
%AMRoundRect*
0 Rectangle with rounded corners*
0 $1 Rounding radius*
0 $2 $3 $4 $5 $6 $7 $8 $9 X,Y pos of 4 corners*
0 Add a 4 corners polygon primitive as box body*
4,1,4,$2,$3,$4,$5,$6,$7,$8,$9,$2,$3,0*
0 Add four circle primitives for the rounded corners*
1,1,$1+$1,$2,$3*
1,1,$1+$1,$4,$5*
1,1,$1+$1,$6,$7*
1,1,$1+$1,$8,$9*
0 Add four rect primitives between the rounded corners*
20,1,$1+$1,$2,$3,$4,$5,0*
20,1,$1+$1,$4,$5,$6,$7,0*
20,1,$1+$1,$6,$7,$8,$9,0*
20,1,$1+$1,$8,$9,$2,$3,0*%
G04 Aperture macros list end*
%ADD10R,4.110000X4.360000*%
%ADD11R,1.200000X0.400000*%
%ADD12RoundRect,0.250000X0.450000X-0.262500X0.450000X0.262500X-0.450000X0.262500X-0.450000X-0.262500X0*%
%ADD13RoundRect,0.250000X-0.262500X-0.450000X0.262500X-0.450000X0.262500X0.450000X-0.262500X0.450000X0*%
%ADD14RoundRect,0.350000X-1.400000X-1.950000X1.400000X-1.950000X1.400000X1.950000X-1.400000X1.950000X0*%
%ADD15RoundRect,0.250000X0.262500X0.450000X-0.262500X0.450000X-0.262500X-0.450000X0.262500X-0.450000X0*%
%ADD16RoundRect,0.250000X0.325000X0.650000X-0.325000X0.650000X-0.325000X-0.650000X0.325000X-0.650000X0*%
%ADD17RoundRect,0.250000X-0.650000X0.325000X-0.650000X-0.325000X0.650000X-0.325000X0.650000X0.325000X0*%
%ADD18RoundRect,0.250000X-0.475000X0.250000X-0.475000X-0.250000X0.475000X-0.250000X0.475000X0.250000X0*%
%ADD19RoundRect,0.250000X-0.650000X-2.450000X0.650000X-2.450000X0.650000X2.450000X-0.650000X2.450000X0*%
%ADD20RoundRect,0.250000X0.650000X-0.325000X0.650000X0.325000X-0.650000X0.325000X-0.650000X-0.325000X0*%
%ADD21RoundRect,0.250000X-2.450000X0.650000X-2.450000X-0.650000X2.450000X-0.650000X2.450000X0.650000X0*%
%ADD22RoundRect,0.250000X0.250000X0.475000X-0.250000X0.475000X-0.250000X-0.475000X0.250000X-0.475000X0*%
%ADD23R,1.200000X2.200000*%
%ADD24R,5.800000X6.400000*%
%ADD25RoundRect,0.250000X-0.450000X0.262500X-0.450000X-0.262500X0.450000X-0.262500X0.450000X0.262500X0*%
%ADD26RoundRect,0.250000X-0.250000X-0.475000X0.250000X-0.475000X0.250000X0.475000X-0.250000X0.475000X0*%
%ADD27O,1.950000X2.400000*%
%ADD28RoundRect,0.250000X0.325000X1.100000X-0.325000X1.100000X-0.325000X-1.100000X0.325000X-1.100000X0*%
%ADD29RoundRect,0.250000X1.000000X-1.750000X1.000000X1.750000X-1.000000X1.750000X-1.000000X-1.750000X0*%
%ADD30C,5.600000*%
%ADD31RoundRect,0.250000X-1.450000X0.312500X-1.450000X-0.312500X1.450000X-0.312500X1.450000X0.312500X0*%
%ADD32RoundRect,0.381000X0.762000X0.381000X-0.762000X0.381000X-0.762000X-0.381000X0.762000X-0.381000X0*%
%ADD33C,1.700000*%
%ADD34C,1.600000*%
%ADD35RoundRect,0.417500X-1.832500X-1.670000X1.832500X-1.670000X1.832500X1.670000X-1.832500X1.670000X0*%
%ADD36RoundRect,0.418750X-1.843750X-1.675000X1.843750X-1.675000X1.843750X1.675000X-1.843750X1.675000X0*%
%ADD37RoundRect,0.150000X-0.825000X-0.150000X0.825000X-0.150000X0.825000X0.150000X-0.825000X0.150000X0*%
%ADD38RoundRect,0.250000X-1.000000X1.750000X-1.000000X-1.750000X1.000000X-1.750000X1.000000X1.750000X0*%
%ADD39O,2.400000X1.950000*%
%ADD40RoundRect,0.250000X-0.325000X-0.650000X0.325000X-0.650000X0.325000X0.650000X-0.325000X0.650000X0*%
%ADD41RoundRect,0.250000X0.475000X-0.250000X0.475000X0.250000X-0.475000X0.250000X-0.475000X-0.250000X0*%
%ADD42RoundRect,0.250000X1.100000X-0.325000X1.100000X0.325000X-1.100000X0.325000X-1.100000X-0.325000X0*%
G04 APERTURE END LIST*
D10*
X131550000Y-81500000D03*
D11*
X127900000Y-76625000D03*
X127900000Y-77275000D03*
X127900000Y-77925000D03*
X127900000Y-78575000D03*
X127900000Y-79225000D03*
X127900000Y-79875000D03*
X127900000Y-80525000D03*
X127900000Y-81175000D03*
X127900000Y-81825000D03*
X127900000Y-82475000D03*
X127900000Y-83125000D03*
X127900000Y-83775000D03*
X127900000Y-84425000D03*
X127900000Y-85075000D03*
X127900000Y-85725000D03*
X127900000Y-86375000D03*
X135200000Y-86375000D03*
X135200000Y-85725000D03*
X135200000Y-85075000D03*
X135200000Y-84425000D03*
X135200000Y-83775000D03*
X135200000Y-83125000D03*
X135200000Y-82475000D03*
X135200000Y-81825000D03*
X135200000Y-81175000D03*
X135200000Y-80525000D03*
X135200000Y-79875000D03*
X135200000Y-79225000D03*
X135200000Y-78575000D03*
X135200000Y-77925000D03*
X135200000Y-77275000D03*
X135200000Y-76625000D03*
D10*
X131600000Y-59100000D03*
D11*
X127950000Y-54225000D03*
X127950000Y-54875000D03*
X127950000Y-55525000D03*
X127950000Y-56175000D03*
X127950000Y-56825000D03*
X127950000Y-57475000D03*
X127950000Y-58125000D03*
X127950000Y-58775000D03*
X127950000Y-59425000D03*
X127950000Y-60075000D03*
X127950000Y-60725000D03*
X127950000Y-61375000D03*
X127950000Y-62025000D03*
X127950000Y-62675000D03*
X127950000Y-63325000D03*
X127950000Y-63975000D03*
X135250000Y-63975000D03*
X135250000Y-63325000D03*
X135250000Y-62675000D03*
X135250000Y-62025000D03*
X135250000Y-61375000D03*
X135250000Y-60725000D03*
X135250000Y-60075000D03*
X135250000Y-59425000D03*
X135250000Y-58775000D03*
X135250000Y-58125000D03*
X135250000Y-57475000D03*
X135250000Y-56825000D03*
X135250000Y-56175000D03*
X135250000Y-55525000D03*
X135250000Y-54875000D03*
X135250000Y-54225000D03*
D12*
X177850000Y-33812500D03*
X177850000Y-31987500D03*
D13*
X80987500Y-77000000D03*
X82812500Y-77000000D03*
X80937500Y-84500000D03*
X82762500Y-84500000D03*
D14*
X157300000Y-60300000D03*
X168800000Y-60300000D03*
D15*
X82762500Y-69300000D03*
X80937500Y-69300000D03*
X82762500Y-89400000D03*
X80937500Y-89400000D03*
X97542500Y-41070000D03*
X95717500Y-41070000D03*
X95762500Y-89520000D03*
X93937500Y-89520000D03*
D12*
X172650000Y-100212500D03*
X172650000Y-98387500D03*
D16*
X107285000Y-25900000D03*
X104335000Y-25900000D03*
D17*
X135400000Y-40412500D03*
X135400000Y-43362500D03*
D15*
X91862500Y-89510000D03*
X90037500Y-89510000D03*
D18*
X140000000Y-40437500D03*
X140000000Y-42337500D03*
D19*
X101910000Y-96360000D03*
X107010000Y-96360000D03*
D17*
X127600000Y-40412500D03*
X127600000Y-43362500D03*
X130200000Y-40412500D03*
X130200000Y-43362500D03*
D15*
X82762500Y-82100000D03*
X80937500Y-82100000D03*
D20*
X109570000Y-50535000D03*
X109570000Y-47585000D03*
D21*
X174650000Y-102450000D03*
X174650000Y-107550000D03*
D22*
X75100000Y-86900000D03*
X73200000Y-86900000D03*
D16*
X76175000Y-97000000D03*
X73225000Y-97000000D03*
D17*
X149000000Y-40462500D03*
X149000000Y-43412500D03*
X96330000Y-47655000D03*
X96330000Y-50605000D03*
D23*
X103500000Y-37190000D03*
X108060000Y-37190000D03*
D24*
X105780000Y-30890000D03*
D13*
X89377500Y-47180000D03*
X91202500Y-47180000D03*
D22*
X75150000Y-74300000D03*
X73250000Y-74300000D03*
D18*
X175650000Y-60050000D03*
X175650000Y-61950000D03*
D22*
X82812500Y-99500000D03*
X80912500Y-99500000D03*
D25*
X177950000Y-72387500D03*
X177950000Y-74212500D03*
D26*
X93800000Y-107300000D03*
X95700000Y-107300000D03*
D15*
X91172500Y-51540000D03*
X89347500Y-51540000D03*
D17*
X132800000Y-40412500D03*
X132800000Y-43362500D03*
D27*
X186000000Y-41000000D03*
X186000000Y-49250000D03*
X186000000Y-65750000D03*
X186000000Y-57500000D03*
D13*
X80950000Y-94600000D03*
X82775000Y-94600000D03*
D16*
X178125000Y-76400000D03*
X175175000Y-76400000D03*
D20*
X172850000Y-63075000D03*
X172850000Y-60125000D03*
D14*
X157300000Y-46400000D03*
X168800000Y-46400000D03*
D28*
X84625000Y-49630000D03*
X81675000Y-49630000D03*
D29*
X136100000Y-36032500D03*
X136100000Y-28032500D03*
D30*
X188300000Y-106300000D03*
D31*
X112930000Y-46522500D03*
X112930000Y-50797500D03*
D32*
X84500000Y-38400000D03*
X84500000Y-35860000D03*
X84500000Y-33320000D03*
X84500000Y-30780000D03*
X84500000Y-28240000D03*
X84500000Y-25700000D03*
D15*
X97502500Y-38560000D03*
X95677500Y-38560000D03*
D33*
X91430000Y-39360000D03*
X89430000Y-39360000D03*
X91430000Y-37360000D03*
X89430000Y-37360000D03*
X91430000Y-35360000D03*
X89430000Y-35360000D03*
X91430000Y-33360000D03*
X89430000Y-33360000D03*
X91430000Y-31360000D03*
X89430000Y-31360000D03*
X91430000Y-29360000D03*
X89430000Y-29360000D03*
D22*
X91910000Y-91730000D03*
X90010000Y-91730000D03*
D18*
X137800000Y-40437500D03*
X137800000Y-42337500D03*
D34*
X65310000Y-87400000D03*
X65310000Y-89900000D03*
X65310000Y-92400000D03*
D22*
X75100000Y-84500000D03*
X73200000Y-84500000D03*
D19*
X101950000Y-105800000D03*
X107050000Y-105800000D03*
D20*
X103500000Y-50565000D03*
X103500000Y-47615000D03*
D15*
X91142500Y-53700000D03*
X89317500Y-53700000D03*
D13*
X80937500Y-71800000D03*
X82762500Y-71800000D03*
D26*
X80900000Y-104700000D03*
X82800000Y-104700000D03*
D12*
X101080000Y-49982500D03*
X101080000Y-48157500D03*
D22*
X95800000Y-87230000D03*
X93900000Y-87230000D03*
D25*
X172650000Y-89687500D03*
X172650000Y-91512500D03*
D19*
X85310000Y-44740000D03*
X80210000Y-44740000D03*
D15*
X75012500Y-89400000D03*
X73187500Y-89400000D03*
D26*
X80900000Y-107200000D03*
X82800000Y-107200000D03*
D16*
X105435000Y-44530000D03*
X102485000Y-44530000D03*
D14*
X157300000Y-87900000D03*
X168800000Y-87900000D03*
D19*
X72660000Y-44740000D03*
X77760000Y-44740000D03*
D13*
X76687500Y-107200000D03*
X78512500Y-107200000D03*
D25*
X98820000Y-48167500D03*
X98820000Y-49992500D03*
D15*
X82750000Y-66700000D03*
X80925000Y-66700000D03*
D16*
X178125000Y-64100000D03*
X175175000Y-64100000D03*
D35*
X113900000Y-42000000D03*
D36*
X120737500Y-41993750D03*
D16*
X76175000Y-99700000D03*
X73225000Y-99700000D03*
D37*
X90475000Y-76690000D03*
X90475000Y-77960000D03*
X90475000Y-79230000D03*
X90475000Y-80500000D03*
X90475000Y-81770000D03*
X90475000Y-83040000D03*
X90475000Y-84310000D03*
X95425000Y-84310000D03*
X95425000Y-83040000D03*
X95425000Y-81770000D03*
X95425000Y-80500000D03*
X95425000Y-79230000D03*
X95425000Y-77960000D03*
X95425000Y-76690000D03*
D13*
X73287500Y-69300000D03*
X75112500Y-69300000D03*
D34*
X65310000Y-102230000D03*
X65310000Y-104730000D03*
X65310000Y-107230000D03*
D26*
X73200000Y-82100000D03*
X75100000Y-82100000D03*
D13*
X76687500Y-102200000D03*
X78512500Y-102200000D03*
D15*
X104832500Y-39920000D03*
X103007500Y-39920000D03*
D26*
X73200000Y-79600000D03*
X75100000Y-79600000D03*
D19*
X101850000Y-67320000D03*
X106950000Y-67320000D03*
D21*
X174650000Y-82350000D03*
X174650000Y-87450000D03*
D15*
X91152500Y-56050000D03*
X89327500Y-56050000D03*
D25*
X177950000Y-60087500D03*
X177950000Y-61912500D03*
D18*
X144400000Y-40437500D03*
X144400000Y-42337500D03*
D17*
X125000000Y-40412500D03*
X125000000Y-43362500D03*
D13*
X80937500Y-74400000D03*
X82762500Y-74400000D03*
D38*
X131600000Y-98400000D03*
X131600000Y-106400000D03*
D15*
X82762500Y-92000000D03*
X80937500Y-92000000D03*
D13*
X73287500Y-71800000D03*
X75112500Y-71800000D03*
D34*
X67810000Y-47800000D03*
X67810000Y-45300000D03*
X67810000Y-42800000D03*
X65310000Y-47800000D03*
X65310000Y-45300000D03*
X65310000Y-42800000D03*
D26*
X73150000Y-94500000D03*
X75050000Y-94500000D03*
D34*
X65320000Y-72500000D03*
X65320000Y-75000000D03*
X65320000Y-77500000D03*
X67820000Y-72500000D03*
X67820000Y-75000000D03*
X67820000Y-77500000D03*
D17*
X172850000Y-72425000D03*
X172850000Y-75375000D03*
D20*
X172900000Y-46537500D03*
X172900000Y-43587500D03*
D16*
X178075000Y-42562500D03*
X175125000Y-42562500D03*
D14*
X157300000Y-74100000D03*
X168800000Y-74100000D03*
X157300000Y-32300000D03*
X168800000Y-32300000D03*
D22*
X91920000Y-87220000D03*
X90020000Y-87220000D03*
D13*
X89357500Y-49360000D03*
X91182500Y-49360000D03*
D30*
X71900000Y-106300000D03*
D38*
X116900000Y-98400000D03*
X116900000Y-106400000D03*
D15*
X91662500Y-107300000D03*
X89837500Y-107300000D03*
D13*
X102987500Y-42110000D03*
X104812500Y-42110000D03*
D30*
X98420000Y-28200000D03*
D39*
X116650000Y-32700000D03*
X124900000Y-32700000D03*
D25*
X146600000Y-40487500D03*
X146600000Y-42312500D03*
D40*
X172475000Y-93700000D03*
X175425000Y-93700000D03*
D30*
X189100000Y-27900000D03*
D28*
X76525000Y-49640000D03*
X73575000Y-49640000D03*
D29*
X148300000Y-36032500D03*
X148300000Y-28032500D03*
D37*
X90275000Y-94990000D03*
X90275000Y-96260000D03*
X90275000Y-97530000D03*
X90275000Y-98800000D03*
X90275000Y-100070000D03*
X90275000Y-101340000D03*
X90275000Y-102610000D03*
X95225000Y-102610000D03*
X95225000Y-101340000D03*
X95225000Y-100070000D03*
X95225000Y-98800000D03*
X95225000Y-97530000D03*
X95225000Y-96260000D03*
X95225000Y-94990000D03*
D15*
X82762500Y-86900000D03*
X80937500Y-86900000D03*
D30*
X131470000Y-70310000D03*
D15*
X97572500Y-43530000D03*
X95747500Y-43530000D03*
D18*
X142200000Y-40437500D03*
X142200000Y-42337500D03*
D14*
X157300000Y-102000000D03*
X168800000Y-102000000D03*
D19*
X101790000Y-57840000D03*
X106890000Y-57840000D03*
X101950000Y-86480000D03*
X107050000Y-86480000D03*
D41*
X175650000Y-46637500D03*
X175650000Y-44737500D03*
D16*
X178025000Y-29800000D03*
X175075000Y-29800000D03*
D13*
X80937500Y-97100000D03*
X82762500Y-97100000D03*
D38*
X146300000Y-98400000D03*
X146300000Y-106400000D03*
D41*
X174950000Y-100250000D03*
X174950000Y-98350000D03*
D42*
X106550000Y-50545000D03*
X106550000Y-47595000D03*
D34*
X65300000Y-57700000D03*
X65300000Y-60200000D03*
X65300000Y-62700000D03*
X67800000Y-57700000D03*
X67800000Y-60200000D03*
X67800000Y-62700000D03*
D26*
X93880000Y-91750000D03*
X95780000Y-91750000D03*
D19*
X101950000Y-76860000D03*
X107050000Y-76860000D03*
D40*
X172475000Y-96200000D03*
X175425000Y-96200000D03*
D15*
X82762500Y-102200000D03*
X80937500Y-102200000D03*
D26*
X73250000Y-76900000D03*
X75150000Y-76900000D03*
D13*
X80937500Y-79600000D03*
X82762500Y-79600000D03*
D12*
X177950000Y-46600000D03*
X177950000Y-44775000D03*
D41*
X175650000Y-33850000D03*
X175650000Y-31950000D03*
D26*
X73150000Y-91900000D03*
X75050000Y-91900000D03*
D27*
X186000000Y-87850000D03*
X186000000Y-96100000D03*
D17*
X172850000Y-30825000D03*
X172850000Y-33775000D03*
D18*
X174950000Y-89650000D03*
X174950000Y-91550000D03*
D26*
X76650000Y-104700000D03*
X78550000Y-104700000D03*
D18*
X175650000Y-72350000D03*
X175650000Y-74250000D03*
M02*
